<svg width="1000" height="500" viewBox="0 0 1000 500" fill="none" xmlns="http://www.w3.org/2000/svg">
<rect width="1000" height="500" fill="#DEF6FF"/>
<path d="M744.105 366.363H699.105L781.037 133.636H833.082L915.128 366.363H870.128L807.969 181.363H806.15L744.105 366.363ZM745.582 275.113H868.31V308.977H745.582V275.113Z" fill="black"/>
<path d="M519.844 366.363V133.636H671.207V168.977H562.003V232.158H663.366V267.499H562.003V331.022H672.116V366.363H519.844Z" fill="black"/>
<path d="M338.594 366.363V133.636H380.753V331.022H483.253V366.363H338.594Z" fill="black"/>
<path d="M298.736 250C298.736 275.075 294.039 296.553 284.645 314.431C275.327 332.234 262.599 345.871 246.463 355.34C230.402 364.81 212.183 369.545 191.804 369.545C171.425 369.545 153.168 364.81 137.031 355.34C120.971 345.795 108.243 332.121 98.8493 314.318C89.5312 296.439 84.8721 275 84.8721 250C84.8721 224.924 89.5312 203.484 98.8493 185.681C108.243 167.803 120.971 154.128 137.031 144.659C153.168 135.189 171.425 130.454 191.804 130.454C212.183 130.454 230.402 135.189 246.463 144.659C262.599 154.128 275.327 167.803 284.645 185.681C294.039 203.484 298.736 224.924 298.736 250ZM256.349 250C256.349 232.348 253.584 217.462 248.054 205.34C242.599 193.144 235.024 183.939 225.327 177.727C215.63 171.439 204.455 168.295 191.804 168.295C179.152 168.295 167.978 171.439 158.281 177.727C148.584 183.939 140.971 193.144 135.44 205.34C129.986 217.462 127.258 232.348 127.258 250C127.258 267.651 129.986 282.575 135.44 294.772C140.971 306.894 148.584 316.098 158.281 322.386C167.978 328.598 179.152 331.704 191.804 331.704C204.455 331.704 215.63 328.598 225.327 322.386C235.024 316.098 242.599 306.894 248.054 294.772C253.584 282.575 256.349 267.651 256.349 250Z" fill="black"/>
</svg>
